<?xml version="1.0" encoding="utf-8"?>
<!-- Generator: Adobe Illustrator 19.2.0, SVG Export Plug-In . SVG Version: 6.00 Build 0)  -->
<svg version="1.1" id="Layer_1" xmlns="http://www.w3.org/2000/svg" xmlns:xlink="http://www.w3.org/1999/xlink" x="0px" y="0px"
	 viewBox="0 0 280 100" style="enable-background:new 0 0 280 100;" xml:space="preserve">
<style type="text/css">
	.st0{fill:#5E6E66;}
</style>
<g>
	<path class="st0" d="M88.2,30.1L88.2,30.1l-0.5,2.4l0.2,0.2c0.2,0,0.2-0.1,0.3-0.3c0,0,0.4-0.6,0.4-0.6c0.3-0.5,0.8-0.6,2.1-0.6
		l3.1,0L93.7,40l-0.1,4.6c-0.1,0.7-0.2,1-0.6,1.1l-0.7,0.1L92.2,46c0,0.2,0.3,0.2,0.4,0.2l2.1-0.1c0.2,0,2.6,0.1,2.6,0.1
		c0.4,0,0.4-0.1,0.4-0.2v-0.1l-0.2-0.1l-0.9-0.1c-0.6-0.1-0.7-0.4-0.8-1.1c0,0-0.1-4.6-0.1-4.6v-9c0,0.1,2.6,0.1,2.6,0.1
		c2.1,0,2.5,0.6,2.5,1.1c0,0.5,0.1,0.7,0.3,0.7c0.1,0,0.2-0.1,0.2-0.4l0.1-2.4l-0.2-0.2l-0.6,0.1c0,0-1.5,0.1-1.5,0.1h-8L89.4,30
		c0,0-0.7-0.2-0.7-0.2C88.4,29.7,88.3,29.9,88.2,30.1"/>
	<path class="st0" d="M117.4,30.1L115,30c-0.1,0-0.4,0-0.4,0.2v0.1l0.2,0.1l0.7,0.1c0.7,0.1,0.8,0.5,0.9,1.1l0,4.6v0.4l-9.1,0.1
		l-0.1-0.5l0-4.6c0-0.8,0.2-1,0.7-1.1l0.6-0.1l0.2-0.2c0-0.2-0.3-0.2-0.4-0.2l-2.1,0.1c-0.3,0-2.4-0.1-2.4-0.1c-0.1,0-0.4,0-0.4,0.2
		v0.1l0.2,0.1l0.7,0.1c0.7,0.1,0.8,0.5,0.9,1.1l0,4.6V40l-0.1,4.6c-0.1,0.7-0.2,1-0.6,1.1c0,0-0.7,0.1-0.7,0.1l-0.2,0.2
		c0,0.2,0.3,0.2,0.4,0.2l2.1-0.1c0.2,0,2.6,0.1,2.6,0.1c0.4,0,0.4-0.1,0.4-0.2v-0.1l-0.2-0.1l-0.9-0.1c-0.6-0.1-0.7-0.4-0.8-1.1
		c0,0-0.1-4.6-0.1-4.6v-2.2l9-0.1l0.1,2.3l-0.1,4.6c-0.1,0.7-0.2,1-0.6,1.1l-0.7,0.1l-0.2,0.2c0,0.2,0.3,0.2,0.4,0.2l2.1-0.1
		c0.3,0,2.6,0.1,2.6,0.1c0.4,0,0.4-0.1,0.4-0.2v-0.1l-0.2-0.1l-1-0.1c-0.6-0.1-0.7-0.4-0.8-1.1l-0.1-4.6v-3.7l0-4.6
		c0-0.8,0.2-1,0.7-1.1l0.6-0.1l0.2-0.2c0-0.2-0.3-0.2-0.4-0.2L117.4,30.1z"/>
	<path class="st0" d="M132.3,30l-0.9,0.1c0,0-4.9,0-4.9,0l-0.9,0l-1.5,0c-0.1,0-0.4,0-0.4,0.2v0.1l0.2,0.1l0.7,0.1
		c0.7,0.1,0.8,0.5,0.9,1.1l0,4.6V40l-0.1,4.6c-0.1,0.7-0.2,1-0.6,1.1l-0.7,0.1L124,46c0,0.2,0.3,0.2,0.4,0.2l2.1-0.1l1.6,0.1
		c0.1,0,0.7,0,0.7,0l3,0c0.8,0,1,0,1.2-0.6c0,0,0.3-2.1,0.3-2.1c0-0.2,0-0.4-0.2-0.4c-0.2,0-0.2,0.2-0.3,0.4
		c-0.1,0.9-0.4,1.3-0.9,1.5l-2,0.2c-2.1,0-2.3-0.3-2.4-1.7l0-2.8l0-2.7c0.1-0.1,3.1,0,3.1,0c0.8,0.1,1,0.4,1,0.7l0.1,0.7l0.2,0.2
		c0.2,0,0.2-0.3,0.2-0.5l0.1-1.3l0.1-0.9c0-0.5-0.1-0.5-0.1-0.5c-0.1,0-0.2,0.1-0.4,0.3c0,0-1,0.3-1,0.3l-3.4,0l-0.1-6
		c0.1-0.1,3-0.1,3-0.1c1.1,0.1,1.3,0.4,1.4,0.7c0,0,0.1,0.7,0.1,0.7c0,0.3,0.1,0.4,0.2,0.4h0.1l0.2-0.3l0.1-1.4l0.1-0.7
		c0-0.5-0.1-0.5-0.1-0.5C132.4,29.9,132.3,30,132.3,30"/>
	<path class="st0" d="M143.8,33.6c0,1.4,0.5,2.8,2.8,4.7l1,0.8c1.9,1.5,2.4,2.4,2.4,3.8c0,1.4-1,2.7-3,2.7c-0.8,0-2.7-0.2-3.1-2.1
		l-0.1-0.8l-0.2-0.2c-0.2,0-0.2,0.3-0.2,0.4l0,0.3l-0.1,2c0,0.6,0,0.7,0.4,0.9c0.8,0.4,1.7,0.6,2.9,0.6c1.3,0,2.4-0.3,3.2-0.9
		c1.4-1,1.8-2.5,1.8-3.6c0-1.6-0.5-3-3.1-5l-0.6-0.5c-2-1.6-2.6-2.3-2.6-3.5c0-1.4,1-2.4,2.5-2.4c1.8,0,2.4,0.8,2.6,1.1l0.3,1
		c0,0.2,0.1,0.3,0.2,0.3c0.2,0,0.2-0.3,0.2-0.6l0.1-2.1c0-0.3-0.1-0.4-0.3-0.4l-0.7-0.1c0,0-2-0.2-2-0.2
		C145.6,29.7,143.8,31.3,143.8,33.6"/>
	<path class="st0" d="M156.8,32L156.8,32c-1.8,1.8-2.4,4.2-2.4,5.8c0,2.7,0.9,4.8,2.6,6.3c1.8,1.6,4,2.3,7.1,2.3
		c1.3,0,2.9-0.1,3.8-0.5c0,0,0.6-0.7,0.6-0.7c0,0,0.5-2.7,0.5-2.7c0-0.3-0.1-0.4-0.2-0.4c-0.2,0-0.2,0.2-0.3,0.4l-0.8,1.7
		c-0.8,0.9-2.1,1-3.6,1c-4.8,0-7.6-3.9-7.6-7.7c0-1.8,0.2-3.9,1.9-5.5c1.1-1,2.6-1.5,4.8-1.5c1.9,0,3.5,0.6,4.2,1.2
		c0.5,0.4,0.9,1.3,0.9,2.1c0,0.2,0,0.5,0.2,0.5c0.2,0,0.2-0.2,0.3-0.5l0.1-2.2l0.1-0.9c0-0.5-0.1-0.6-0.3-0.6c0,0-2.2-0.3-2.2-0.3
		l-3.1-0.3C160.5,29.7,158.4,30.5,156.8,32"/>
	<path class="st0" d="M185.7,30.1l-2.4-0.1c-0.1,0-0.4,0-0.4,0.2v0.1l0.2,0.1l0.7,0.1c0.7,0.1,0.8,0.5,0.9,1.1l0,5l-9,0.1l-0.1-0.5
		l0-4.6c0-0.8,0.2-1,0.7-1.1l0.6-0.1l0.2-0.2c0-0.2-0.3-0.2-0.4-0.2l-2.1,0.1c-0.3,0-2.4-0.1-2.4-0.1c-0.1,0-0.4,0-0.4,0.2v0.1
		l0.2,0.1l0.7,0.1c0.7,0.1,0.8,0.5,0.9,1.1c0,0,0,4.6,0,4.6V40l-0.1,4.6c-0.1,0.7-0.2,1-0.6,1.1l-0.7,0.1l-0.2,0.2
		c0,0.2,0.3,0.2,0.4,0.2l2.1-0.1c0.3,0,2.6,0.1,2.6,0.1c0.4,0,0.4-0.1,0.4-0.2v-0.1l-0.2-0.1l-0.9-0.1c-0.6-0.1-0.7-0.4-0.8-1.1
		l-0.1-4.6v-2.2l9-0.1l0.1,2.3l-0.1,4.6c-0.1,0.7-0.2,1-0.6,1.1l-0.7,0.1l-0.2,0.2c0,0.2,0.3,0.2,0.4,0.2l2.1-0.1
		c0.3,0,2.6,0.1,2.6,0.1c0.4,0,0.4-0.1,0.4-0.2v-0.1l-0.2-0.1l-0.9-0.1c-0.5-0.1-0.7-0.4-0.8-1.1l-0.1-4.6v-3.7l0-4.6
		c0-0.8,0.2-1,0.7-1.1l0.6-0.1l0.2-0.2c0-0.2-0.3-0.2-0.4-0.2L185.7,30.1z"/>
	<path class="st0" d="M193.1,37.5c0-4.3,2.3-6.9,6.1-6.9c3.1,0,6.4,2.4,6.4,7.8c0,6.9-4.8,7.2-5.8,7.2
		C195.9,45.6,193.1,42.3,193.1,37.5 M190.9,38.1c0,4.1,2.6,8.4,8.3,8.4c4.9,0,8.5-3.7,8.5-8.8c0-4.8-3.4-8-8.4-8
		C193.2,29.7,190.9,34.9,190.9,38.1"/>
	<path class="st0" d="M212.3,37.5c0-4.3,2.3-6.9,6.1-6.9c3.1,0,6.4,2.4,6.4,7.8c0,6.9-4.8,7.2-5.8,7.2
		C215.1,45.6,212.3,42.3,212.3,37.5 M210.2,38.1c0,4.1,2.6,8.4,8.3,8.4c4.9,0,8.5-3.7,8.5-8.8c0-4.8-3.4-8-8.4-8
		C212.4,29.7,210.2,34.9,210.2,38.1"/>
	<path class="st0" d="M232.1,30.1l-2.4-0.1c-0.1,0-0.4,0-0.4,0.2v0.1l0.2,0.1l0.7,0.1c0.7,0.1,0.8,0.5,0.9,1.1l0,4.6V40l-0.1,4.6
		c-0.1,0.7-0.2,1-0.6,1.1l-0.7,0.1l-0.2,0.2c0,0.2,0.3,0.2,0.4,0.2l1.9-0.1c0.1,0,2.3,0.1,2.3,0.1l0.7,0l2.8,0
		c1.1,0,1.2-0.1,1.4-0.6c0,0,0.3-2.1,0.3-2.1c0-0.2,0-0.4-0.2-0.4c-0.2,0-0.2,0.2-0.3,0.3l-0.5,1.2c-0.5,0.6-1.3,0.6-2.5,0.6
		c-1.7,0-2.2-0.2-2.5-0.5c-0.4-0.4-0.4-1.8-0.4-4.8v-3.8l0-4.6c0-0.8,0.2-1,0.8-1.1l0.8-0.1l0.2-0.2c0-0.2-0.3-0.2-0.4-0.2
		L232.1,30.1z"/>
	<path class="st0" d="M249.9,37.5c0-4.3,2.3-6.9,6.1-6.9c3.1,0,6.4,2.4,6.4,7.8c0,6.9-4.8,7.2-5.8,7.2
		C252.7,45.6,249.9,42.3,249.9,37.5 M247.8,38.1c0,4.1,2.6,8.4,8.3,8.4c4.9,0,8.5-3.7,8.5-8.8c0-4.8-3.4-8-8.4-8
		C250,29.7,247.8,34.9,247.8,38.1"/>
	<path class="st0" d="M275.8,30l-0.6,0.1c-0.3,0-5.5,0-5.5,0l-0.9,0l-1.5,0c-0.1,0-0.4,0-0.4,0.2v0.1l0.2,0.1l0.7,0.1
		c0.7,0.1,0.8,0.5,0.9,1.1c0,0,0,4.6,0,4.6V40l-0.1,4.6c-0.1,0.7-0.2,1-0.6,1.1l-0.7,0.1l-0.2,0.2c0,0.2,0.3,0.2,0.4,0.2l2.1-0.1
		c0.3,0,2.6,0.1,2.6,0.1c0.3,0,0.4-0.1,0.4-0.2v-0.1l-0.2-0.1l-0.9-0.1c-0.6-0.1-0.7-0.4-0.8-1.1l-0.1-4.6v-1.8
		c0.1-0.1,3.3-0.1,3.3-0.1c0.6,0.1,0.9,0.4,1,0.7c0,0,0.1,0.8,0.1,0.8l0.2,0.2c0.2,0,0.2-0.3,0.2-0.5l0.1-1.4l0.1-0.9
		c0-0.3,0-0.5-0.1-0.5h0l-0.2,0.2l0,0c-0.2,0.2-0.4,0.3-0.9,0.4c0,0-0.9,0-0.9,0l-2.7,0l-0.1-6c0.1-0.2,3.4-0.1,3.4-0.1
		c0.8,0,1.3,0.4,1.4,0.6c0,0,0.2,0.8,0.2,0.8c0,0.3,0.2,0.3,0.2,0.3h0.1l0.2-0.3l0.1-1.4l0.1-0.7c0-0.4,0-0.5-0.2-0.5
		C276,29.9,275.8,30,275.8,30"/>
	<path class="st0" d="M268.8,36.3c0-3.3,0-3.9,0-4.6c0-0.7-0.2-1.1-0.9-1.2c-0.2,0-0.5-0.1-0.7-0.1c-0.1,0-0.2,0-0.2-0.1
		c0-0.1,0.1-0.2,0.3-0.2c0.5,0,1.1,0,1.5,0l0.9,0c0.4,0,4.7,0,5.2,0c0.4,0,0.7,0,0.9-0.1c0.1,0,0.2-0.1,0.3-0.1
		c0.1,0,0.1,0.1,0.1,0.2c0,0.2-0.1,0.4-0.2,1c0,0.2-0.1,1.1-0.1,1.4c0,0.1-0.1,0.2-0.2,0.2c-0.1,0-0.2-0.1-0.2-0.3
		c0-0.2-0.1-0.5-0.2-0.8c-0.1-0.3-0.6-0.7-1.4-0.7l-3.3-0.1c-0.1,0-0.2,0.1-0.2,0.2V37c0,0.1,0,0.2,0.1,0.2l2.7,0c0.4,0,0.7,0,1,0
		c0.5,0,0.8-0.1,1-0.4c0.1-0.1,0.2-0.2,0.2-0.2c0.1,0,0.1,0.1,0.1,0.2c0,0.1-0.1,0.5-0.2,1.2c0,0.4-0.1,1.3-0.1,1.4
		c0,0.2,0,0.4-0.1,0.4c-0.1,0-0.2-0.1-0.2-0.2c0-0.2,0-0.5-0.1-0.8c-0.1-0.3-0.4-0.7-1.1-0.8c-0.5-0.1-2.8-0.1-3.2-0.1
		c-0.1,0-0.1,0-0.1,0.2V40c0,2,0,3.7,0.1,4.6c0.1,0.6,0.2,1.1,0.8,1.2c0.3,0,0.8,0.1,1,0.1c0.1,0,0.2,0.1,0.2,0.1
		c0,0.1-0.1,0.2-0.3,0.2c-1.2,0-2.5-0.1-2.6-0.1c-0.1,0-1.4,0.1-2.1,0.1c-0.2,0-0.3,0-0.3-0.2c0-0.1,0-0.1,0.2-0.1
		c0.2,0,0.4,0,0.6-0.1c0.4-0.1,0.5-0.6,0.6-1.2c0.1-0.9,0.1-2.6,0.1-4.6V36.3z"/>
	<path class="st0" d="M103,62.6l1.9-5.7c0.2,0,2.2,5.7,2.2,5.7L103,62.6L103,62.6z M104.7,54.2L104.7,54.2l-4.8,13.2
		c-0.4,1.1-0.8,1.8-1.7,1.9c0,0-0.7,0-0.7,0l-0.2,0.2c0,0.2,0.3,0.2,0.5,0.2l2.4-0.1l1.7,0.1c0.3,0,0.4-0.1,0.4-0.2v-0.1l-0.3-0.1
		h-0.2c-0.3,0-0.7-0.1-0.7-0.5l0.3-1.4l1.3-3.8l4.7-0.1c0.1,0.1,2.1,5.3,2.1,5.3l0,0.4c-0.1,0.1-0.3,0.1-0.3,0.3
		c0,0.2,0.2,0.2,0.6,0.2c0.1,0,3.4,0,3.4,0c0.3,0,0.5-0.1,0.5-0.2v-0.1l-0.3-0.1l-0.8-0.1c-0.5-0.1-1.1-0.5-1.8-2.3l-4.4-11.3
		l-0.6-1.5c-0.3-0.7-0.4-0.8-0.5-0.8C105.1,53.3,105,53.4,104.7,54.2"/>
	<path class="st0" d="M118.3,61.8l-0.1-0.2v-6.9c0.1-0.2,1.5-0.3,1.5-0.3c2.3,0,3.6,1.6,3.6,4.2c0,1.5-0.5,2.7-1.3,3.2l-1.5,0.4
		C119.5,62.2,118.6,62,118.3,61.8 M117.3,53.6l-2.4-0.1c-0.2,0-0.4,0-0.4,0.2v0.1l0.2,0.1l0.7,0.1c0.7,0.2,0.8,0.5,0.9,1.1l0,4.6
		v3.7l-0.1,4.6c-0.1,0.7-0.2,1-0.6,1.1c0,0-0.7,0.1-0.7,0.1l-0.2,0.2c0,0.2,0.3,0.2,0.4,0.2l1.9-0.1c0.1,0,0.3,0,0.3,0l2.4,0.1
		c0.3,0,0.4-0.1,0.4-0.2v-0.1l-0.2-0.1l-0.9-0.1c-0.6-0.1-0.7-0.4-0.8-1.1c0,0-0.1-4.6-0.1-4.6V63c0.1-0.1,2.7-0.1,2.7-0.1
		c0.2,0.1,1,1.2,1,1.2l1.5,2l0.3,0.4c1,1.4,1.7,2.3,2.6,2.7c0.6,0.3,1.1,0.4,2.3,0.4h1.5c0.3,0,0.6,0,0.6-0.2v-0.1l-0.3-0.1
		l-0.8-0.1c-0.6-0.1-1.4-0.3-2.5-1.5l-3.7-4.6l-0.7-0.9c1.8-1.5,2.6-3.1,2.6-4.9c0-1.5-0.9-2.5-1.5-2.9c-1.2-0.8-2.6-0.9-3.9-0.9
		L117.3,53.6z"/>
	<path class="st0" d="M128.3,53.7L128.3,53.7l-0.5,2.4l0.2,0.2c0.1,0,0.2-0.1,0.3-0.3c0,0,0.4-0.6,0.4-0.6c0.3-0.5,0.8-0.6,2.1-0.7
		l3.1,0l-0.1,8.9l-0.1,4.6c-0.1,0.7-0.2,1-0.6,1.1l-0.7,0.1l-0.2,0.2c0,0.2,0.3,0.2,0.4,0.2l2.1-0.1c0.3,0,2.6,0.1,2.6,0.1
		c0.3,0,0.4-0.1,0.4-0.2v-0.1l-0.2-0.1l-0.9-0.1c-0.6-0.1-0.7-0.4-0.8-1.1l-0.1-4.6v-9c0,0.1,2.6,0.1,2.6,0.1c2.1,0,2.5,0.6,2.5,1.1
		c0,0.5,0.1,0.7,0.3,0.7c0.1,0,0.2,0,0.2-0.4l0.1-2.4l-0.2-0.2l-0.6,0.1c0,0-1.5,0.1-1.5,0.1h-8l-1.7-0.1l-0.7-0.2
		C128.4,53.3,128.4,53.4,128.3,53.7"/>
	<path class="st0" d="M146.5,53.6l-2.1-0.1c-0.1,0-0.4,0-0.4,0.2v0.1l0.2,0.1l0.6,0.1c0.4,0.1,0.6,0.4,0.7,1.1l0,4.6v3.7l-0.1,4.6
		c-0.1,0.6-0.2,1-0.6,1.1l-0.7,0.1l-0.2,0.2c0,0.2,0.3,0.2,0.4,0.2l2.1-0.1c0.2,0,2.6,0.1,2.6,0.1c0.3,0,0.4-0.1,0.4-0.2v-0.1
		l-0.2-0.1l-0.9-0.1c-0.6-0.1-0.7-0.4-0.8-1.1l-0.1-4.6v-3.7l0-4.6c0-0.8,0.2-1,0.7-1.1c0,0,0.6-0.1,0.6-0.1l0.2-0.2
		c0-0.2-0.3-0.2-0.4-0.2L146.5,53.6z"/>
	<path class="st0" d="M153.4,57.2c0,1.4,0.5,2.8,2.8,4.7l1,0.8c1.9,1.6,2.4,2.4,2.4,3.8c0,1.4-1,2.8-3,2.8c-1.7,0-2.8-0.8-3.1-2.1
		l-0.1-0.8l-0.2-0.2c-0.2,0-0.2,0.3-0.2,0.4c0,0.3-0.1,2.3-0.1,2.3c0,0.6,0,0.7,0.4,0.9c0.8,0.4,1.7,0.6,2.9,0.6
		c1.3,0,2.4-0.3,3.2-0.9c1.4-1,1.8-2.5,1.8-3.6c0-1.6-0.5-3-3.1-5l-0.6-0.5c-2-1.6-2.6-2.3-2.6-3.5c0-1.4,1-2.4,2.5-2.4
		c1.8,0,2.4,0.8,2.6,1.1c0,0,0.3,1,0.3,1c0,0.1,0,0.3,0.2,0.3c0.2,0,0.2-0.3,0.2-0.6l0.1-2.1c0-0.3-0.1-0.4-0.3-0.4l-0.7-0.1l-2-0.2
		C155.2,53.3,153.4,54.8,153.4,57.2"/>
	<path class="st0" d="M167.8,62.6l1.9-5.7c0.2,0,2.2,5.7,2.2,5.7L167.8,62.6L167.8,62.6z M169.6,54.2L169.6,54.2l-4.8,13.2
		c-0.4,1.1-0.8,1.8-1.7,1.9l-0.7,0l-0.2,0.2c0,0.2,0.3,0.2,0.5,0.2l2.4-0.1l1.7,0.1c0.3,0,0.4-0.1,0.4-0.2v-0.1l-0.3-0.1h-0.2
		c-0.3,0-0.7-0.1-0.7-0.5l0.3-1.4c0,0,1.3-3.8,1.3-3.8l4.7-0.1c0.1,0.1,2.1,5.3,2.1,5.3l0,0.4c-0.2,0.1-0.3,0.2-0.3,0.3
		c0,0.2,0.2,0.2,0.6,0.2c0.1,0,3.4,0,3.4,0c0.3,0,0.5-0.1,0.5-0.2v-0.1l-0.3-0.1l-0.8-0.1c-0.5-0.1-1.1-0.5-1.8-2.3L171.4,56
		l-0.7-1.9c-0.3-0.7-0.4-0.8-0.5-0.8C169.9,53.3,169.8,53.5,169.6,54.2"/>
	<path class="st0" d="M180.5,54.4L180.5,54.4l0,12.2c0,2-0.1,2.5-0.6,2.6c0,0-0.9,0.1-0.9,0.1l-0.2,0.2c0,0.2,0.3,0.2,0.4,0.2l2-0.1
		l2.2,0.1c0.1,0,0.4,0,0.4-0.2v-0.1l-0.2-0.1l-1-0.1c-0.5-0.1-0.7-0.5-0.8-2.4c0,0-0.3-10.1-0.3-10.2c0,0.2,5.4,6.1,5.4,6.1l5.5,5.8
		c1.2,1.2,1.4,1.4,1.6,1.4c0.2,0,0.3-0.2,0.3-1.6l0-12.4c0-1.3,0.1-1.7,0.7-1.8l0.6-0.1l0.2-0.2c0-0.2-0.3-0.2-0.5-0.2l-1.8,0.1
		l-2.2-0.1c-0.2,0-0.5,0-0.5,0.2v0.1l0.2,0.2l1,0.1c0.6,0.2,0.8,0.5,0.8,1.9c0,0,0.2,10.6,0.2,10.8c0-0.2-1.7-2-1.7-2l-3.3-3.5
		l-6.7-7.3c-0.2-0.2-0.8-0.7-0.8-0.7C180.5,53.3,180.5,53.7,180.5,54.4"/>
	<path class="st0" d="M214.8,53.6l-0.7,0.1c-0.2,0-5.4,0-5.4,0l-0.9,0l-1.5,0c-0.1,0-0.4,0-0.4,0.2v0.1l0.2,0.1l0.7,0.1
		c0.7,0.1,0.8,0.5,0.9,1.1l0,4.6v3.7l-0.1,4.6c-0.1,0.7-0.2,1-0.6,1.1l-0.7,0.1l-0.2,0.2c0,0.2,0.3,0.2,0.4,0.2l2.1-0.1
		c0.3,0,2.6,0.1,2.6,0.1c0.3,0,0.4-0.1,0.4-0.2v-0.1l-0.2-0.1l-0.9-0.1c-0.5-0.1-0.7-0.4-0.8-1.1l-0.1-4.6v-1.8
		c0.1-0.1,3.3-0.1,3.3-0.1c0.6,0.1,0.9,0.4,1,0.7l0.1,0.6c0,0.3,0.1,0.4,0.2,0.4c0.2,0,0.2-0.3,0.2-0.5l0.1-1.4l0.1-0.9
		c0-0.3,0-0.5-0.1-0.5h0l-0.2,0.2l0,0.1c-0.2,0.3-0.4,0.3-0.9,0.4l-0.9,0l-2.7,0l-0.1-6c0.1-0.2,3.4-0.1,3.4-0.1
		c0.8,0,1.3,0.4,1.4,0.6l0.2,0.8c0,0.3,0.1,0.3,0.2,0.3h0.1l0.2-0.3l0.1-1.1l0-0.3l0.1-0.7c0-0.5-0.1-0.5-0.2-0.5
		C214.9,53.5,214.8,53.6,214.8,53.6"/>
	<path class="st0" d="M219.8,61.1c0-4.3,2.3-6.9,6.1-6.9c3.1,0,6.4,2.4,6.4,7.8c0,6.9-4.8,7.2-5.8,7.2
		C222.6,69.1,219.8,65.8,219.8,61.1 M217.6,61.7c0,4.1,2.6,8.4,8.3,8.4c5,0,8.5-3.7,8.5-8.8c0-4.8-3.4-8-8.4-8
		C219.9,53.3,217.6,58.4,217.6,61.7"/>
	<path class="st0" d="M239,61.1c0-4.3,2.3-6.9,6.1-6.9c3.1,0,6.4,2.4,6.4,7.8c0,6.9-4.8,7.2-5.8,7.2C241.8,69.1,239,65.8,239,61.1
		 M236.8,61.7c0,4.1,2.6,8.4,8.3,8.4c4.9,0,8.5-3.7,8.5-8.8c0-4.8-3.4-8-8.4-8C239.1,53.3,236.8,58.4,236.8,61.7"/>
	<path class="st0" d="M260,68.3l-0.2-1.6l0-4.6v-2.6l0-4.5c0-0.2,0-0.3,0.2-0.4c0,0,1.4-0.1,1.4-0.1c2.8,0,5,0.4,6.9,2.4
		c0.8,0.8,2,2.5,2,5.3c0,2-0.7,4-1.7,5c-1.2,1.2-3.1,2-5,2C261.1,69.1,260.3,68.7,260,68.3 M262.1,53.6l-0.4,0l-2.9,0.1
		c-0.3,0-2.4-0.1-2.4-0.1c-0.1,0-0.4,0-0.4,0.2v0.1l0.2,0.1l0.7,0.1c0.7,0.1,0.8,0.5,0.9,1.1l0,4.6v3.7l-0.1,4.6
		c-0.1,0.7-0.2,1-0.6,1.1l-0.7,0.1l-0.2,0.2c0,0.2,0.3,0.2,0.4,0.2l1.2,0c0,0,0.8,0,0.8,0l1.8,0.1l3,0.1c2.7,0,4.9-0.8,6.5-2.5
		c0.7-0.7,2.3-2.8,2.3-6c0-2.7-1.1-4.5-2.1-5.4C267.8,53.6,264.2,53.6,262.1,53.6"/>
</g>
<g>
	<path class="st0" d="M65.1,49.5c-0.1-1.5-0.4-2.9-0.6-4.3c-2.7,0.3-4.5,2-5.4,3.5l6.2,5.9l0.1,0C65.3,52.9,65.3,51.2,65.1,49.5z"/>
	<path class="st0" d="M55.8,50.6c-1.8-2.5-3.9-3.6-6.2-3.6c-3.2,0.1-5.3,1.9-6.2,3.6l6.2,5.9L55.8,50.6z"/>
	<path class="st0" d="M42.4,24.7l5.8-5.5c-1.7-2.3-3.6-3.4-5.8-3.3c-3,0-4.9,1.8-5.8,3.3L42.4,24.7z"/>
	<polygon class="st0" points="37.2,12.7 37.2,12.7 34.1,9.7 30.9,12.7 34.1,15.7 	"/>
	<path class="st0" d="M40.2,50.6c-1.8-2.5-3.9-3.6-6.2-3.6c-3.2,0.1-5.3,1.9-6.2,3.6l6.2,5.9L40.2,50.6z"/>
	<path class="st0" d="M43.7,29l6.2,6l6.2-6c-1.8-2.5-3.9-3.6-6.2-3.6C46.8,25.5,44.7,27.3,43.7,29z"/>
	<path class="st0" d="M51.3,39.9l6.1,5.8l6.1-5.8c-1.7-2.4-3.8-3.5-6.1-3.5C54.2,36.5,52.2,38.3,51.3,39.9z"/>
	<path class="st0" d="M32.6,39.8c-0.9-1.7-3-3.5-6.2-3.6c-2.3,0-4.4,1.1-6.2,3.6l6.2,5.9L32.6,39.8z"/>
	<path class="st0" d="M40.4,28.9c-1.8-2.6-4-3.7-6.4-3.7c-3.3,0.1-5.4,2-6.4,3.7L34,35L40.4,28.9z"/>
	<path class="st0" d="M11.9,50.6l6.2,5.9l6.2-5.9c-0.9-1.7-3-3.5-6.2-3.6C15.8,47,13.7,48.1,11.9,50.6z"/>
	<path class="st0" d="M48.8,39.8c-1.8-2.5-3.9-3.6-6.2-3.6c-3.2,0.1-5.3,1.9-6.2,3.6l6.2,5.9L48.8,39.8z"/>
	<path class="st0" d="M32.5,19.2c-0.9-1.6-2.8-3.3-5.8-3.3c-2.1,0-4.1,1-5.8,3.3l5.8,5.5L32.5,19.2z"/>
	<path class="st0" d="M34,67.4c-2.4,0-5.3,1.8-5.3,6.8c0,6.2,2.4,15.5,5.3,15.5c2.9,0,5.3-9.4,5.3-15.5C39.4,69.3,36.5,67.4,34,67.4
		z"/>
	<path class="st0" d="M16.7,71.7c2.2,10.6,7.6,15.1,13.6,18.4c-2.8-6.3-4.4-12.6-4.9-18.4C24.2,66.1,16.8,66.4,16.7,71.7z"/>
	<path class="st0" d="M53.9,72.7c-1.1,7-5.6,12.3-10.7,16.5c1.5-0.3,2.9-0.8,4.3-1.3c6.7-2.6,11.9-7.7,15.1-15.2
		c0.1-0.3,0.1-0.6,0.1-0.9C63.3,65.4,54.7,65.7,53.9,72.7z"/>
	<path class="st0" d="M3.1,64.1h61.7c0.2-1.2,0.3-2.4,0.4-3.7H2.6C2.7,61.6,2.9,62.9,3.1,64.1z"/>
	<path class="st0" d="M51.5,71.7c-0.1-5.3-7.4-5.6-8.7,0c-0.5,5.9-2.1,12.1-4.9,18.4C43.9,86.8,49.3,82.3,51.5,71.7z"/>
	<path class="st0" d="M24,29.1c-0.9-1.7-3-3.5-6.1-3.5c-2.3,0-4.4,1.1-6.1,3.5l6.1,5.9L24,29.1z"/>
	<path class="st0" d="M17.3,39.9c-1.8-2.5-3.9-3.6-6.2-3.5c-3.2,0.1-5.2,1.9-6.1,3.5l6.1,5.9L17.3,39.9z"/>
	<path class="st0" d="M14.5,72.7c-0.8-7.3-10.2-7.4-8.7,0c1.4,3.2,3.1,6,5.2,8.4c0.1,0.1,0.2,0.3,0.4,0.4c0.1,0.1,0.3,0.3,0.4,0.4
		c0.3,0.3,0.5,0.5,0.8,0.8c0.1,0.1,0.2,0.2,0.3,0.2c0.3,0.3,0.6,0.5,0.9,0.8c0.4,0.3,0.7,0.6,1.1,0.9c0,0,0,0,0,0
		c3,2.2,6.5,3.7,10.3,4.6C20.1,85,15.6,79.7,14.5,72.7z"/>
	<path class="st0" d="M3.4,47.1c-0.3,1.4-0.5,2.8-0.6,4.3c-0.2,1.7-0.3,3.4-0.3,5.1l0.1,0l6.2-5.9C7.9,49.1,6.1,47.5,3.4,47.1z"/>
</g>
</svg>
